<svg width="32" height="32" viewBox="0 0 32 32" fill="none" xmlns="http://www.w3.org/2000/svg">
<path d="M26 19.3401C26 25.4401 20.95 30.3451 14.85 29.9811C8.58101 29.6071 4.29001 23.5781 5.09801 17.2761C5.58701 13.4431 7.38401 10.1561 9.34001 7.60606C9.68001 7.16106 10.029 10.7421 10.378 10.3481C10.728 9.94306 13.972 4.32906 15.1 2.35706C15.1485 2.27008 15.2152 2.19456 15.2955 2.13563C15.3758 2.0767 15.4678 2.03574 15.5653 2.01553C15.6628 1.99533 15.7636 1.99635 15.8607 2.01852C15.9577 2.0407 16.0489 2.08352 16.128 2.14406C18.394 3.85406 26 10.2771 26 19.3401Z" fill="#FF6723"/>
<path d="M23 21.851C23 25.893 19.481 29.142 15.201 28.995C10.581 28.839 7.41299 24.611 8.09099 20.256C9.06999 14.012 15.48 10 15.48 10C15.48 10 23 14.707 23 21.851Z" fill="#FFB02E"/>
</svg>
